<svg width="18" height="17" viewBox="0 0 18 17" fill="none" xmlns="http://www.w3.org/2000/svg">
<path d="M9.00082 0.666687C4.39665 0.666687 0.667482 4.39585 0.667482 9.00002C0.666478 10.7493 1.21631 12.4545 2.23899 13.8737C3.26167 15.2929 4.70526 16.3541 6.36498 16.9067C6.78165 16.9792 6.93831 16.7292 6.93831 16.51C6.93831 16.3125 6.92748 15.6567 6.92748 14.9584C4.83415 15.3442 4.29248 14.4484 4.12581 13.9792C4.03165 13.7392 3.62582 13 3.27165 12.8017C2.97998 12.6459 2.56332 12.26 3.26082 12.25C3.91748 12.2392 4.38582 12.8542 4.54248 13.1042C5.29248 14.3642 6.48998 14.01 6.96915 13.7917C7.04248 13.25 7.26081 12.8859 7.50081 12.6775C5.64665 12.4692 3.70915 11.75 3.70915 8.56252C3.70915 7.65585 4.03165 6.90669 4.56332 6.32335C4.47998 6.11502 4.18832 5.26085 4.64665 4.11502C4.64665 4.11502 5.34415 3.89585 6.93831 4.96835C7.61674 4.78035 8.31766 4.68587 9.02165 4.68752C9.72998 4.68752 10.4383 4.78085 11.105 4.96835C12.6991 3.88502 13.3966 4.11502 13.3966 4.11502C13.855 5.26085 13.5633 6.11502 13.48 6.32335C14.0108 6.90669 14.3341 7.64585 14.3341 8.56252C14.3341 11.7609 12.3866 12.4692 10.5325 12.6775C10.8341 12.9375 11.095 13.4375 11.095 14.2192C11.095 15.3334 11.0841 16.2292 11.0841 16.5109C11.0841 16.7292 11.2408 16.9892 11.6575 16.9059C13.3115 16.3472 14.7487 15.284 15.7669 13.8658C16.7851 12.4476 17.3329 10.7458 17.3333 9.00002C17.3333 4.39585 13.6041 0.666687 8.99998 0.666687" fill="#020202"/>
</svg>
