<svg width="16" height="16" viewBox="0 0 16 16" fill="none" xmlns="http://www.w3.org/2000/svg">
<path d="M13 0.5C13.663 0.5 14.2989 0.763392 14.7678 1.23223C15.2366 1.70107 15.5 2.33696 15.5 3V13C15.5 13.663 15.2366 14.2989 14.7678 14.7678C14.2989 15.2366 13.663 15.5 13 15.5H3C2.33696 15.5 1.70107 15.2366 1.23223 14.7678C0.763392 14.2989 0.5 13.663 0.5 13V3C0.5 2.33696 0.763392 1.70107 1.23223 1.23223C1.70107 0.763392 2.33696 0.5 3 0.5H13ZM13 2.16667H3C2.77899 2.16667 2.56702 2.25446 2.41074 2.41074C2.25446 2.56702 2.16667 2.77899 2.16667 3V13C2.16667 13.221 2.25446 13.433 2.41074 13.5893C2.56702 13.7455 2.77899 13.8333 3 13.8333H8H13C13.221 13.8333 13.433 13.7455 13.5893 13.5893C13.7455 13.433 13.8333 13.221 13.8333 13V3C13.8333 2.77899 13.7455 2.56702 13.5893 2.41074C13.433 2.25446 13.221 2.16667 13 2.16667ZM4.66667 6.33333C4.87078 6.33336 5.06778 6.4083 5.22031 6.54393C5.37284 6.67956 5.47029 6.86646 5.49417 7.06917L5.5 7.16667V11.3333C5.49976 11.5457 5.41843 11.75 5.27263 11.9045C5.12682 12.0589 4.92754 12.1519 4.7155 12.1643C4.50347 12.1768 4.29468 12.1078 4.13181 11.9714C3.96893 11.8351 3.86425 11.6417 3.83917 11.4308L3.83333 11.3333V7.16667C3.83333 6.94565 3.92113 6.73369 4.07741 6.57741C4.23369 6.42113 4.44565 6.33333 4.66667 6.33333ZM7.16667 5.5C7.36183 5.49997 7.55081 5.56844 7.70066 5.69347C7.85052 5.8185 7.95173 5.99216 7.98667 6.18417C8.15435 6.08693 8.32772 5.99983 8.50583 5.92333C9.06167 5.68583 9.89417 5.555 10.6458 5.79083C11.04 5.91583 11.4358 6.14917 11.7292 6.54667C11.9917 6.90083 12.1333 7.33167 12.1617 7.81583L12.1667 8V11.3333C12.1664 11.5457 12.0851 11.75 11.9393 11.9045C11.7935 12.0589 11.5942 12.1519 11.3822 12.1643C11.1701 12.1768 10.9613 12.1078 10.7985 11.9714C10.6356 11.8351 10.5309 11.6417 10.5058 11.4308L10.5 11.3333V8C10.5 7.725 10.4333 7.59667 10.39 7.5375C10.3278 7.46013 10.2421 7.40513 10.1458 7.38083C9.85583 7.28917 9.43833 7.3375 9.16083 7.45583C8.74417 7.63417 8.3625 7.91417 8.1025 8.17333L8 8.28333V11.3333C7.99976 11.5457 7.91843 11.75 7.77263 11.9045C7.62682 12.0589 7.42754 12.1519 7.2155 12.1643C7.00347 12.1768 6.79468 12.1078 6.63181 11.9714C6.46893 11.8351 6.36425 11.6417 6.33917 11.4308L6.33333 11.3333V6.33333C6.33333 6.11232 6.42113 5.90036 6.57741 5.74408C6.73369 5.5878 6.94565 5.5 7.16667 5.5ZM4.66667 3.83333C4.88768 3.83333 5.09964 3.92113 5.25592 4.07741C5.4122 4.23369 5.5 4.44565 5.5 4.66667C5.5 4.88768 5.4122 5.09964 5.25592 5.25592C5.09964 5.4122 4.88768 5.5 4.66667 5.5C4.44565 5.5 4.23369 5.4122 4.07741 5.25592C3.92113 5.09964 3.83333 4.88768 3.83333 4.66667C3.83333 4.44565 3.92113 4.23369 4.07741 4.07741C4.23369 3.92113 4.44565 3.83333 4.66667 3.83333Z" fill="#020202"/>
</svg>
