<svg width="16" height="12" viewBox="0 0 16 12" fill="none" xmlns="http://www.w3.org/2000/svg">
<path d="M1.84583 11.8334C1.4625 11.8334 1.1425 11.705 0.885833 11.4484C0.628611 11.1911 0.5 10.8709 0.5 10.4875V1.51252C0.5 1.12919 0.628611 0.809187 0.885833 0.55252C1.1425 0.295298 1.4625 0.166687 1.84583 0.166687H14.1542C14.5375 0.166687 14.8575 0.295298 15.1142 0.55252C15.3714 0.809187 15.5 1.12919 15.5 1.51252V10.4875C15.5 10.8709 15.3717 11.1909 15.115 11.4475C14.8578 11.7047 14.5375 11.8334 14.1542 11.8334H1.84583ZM8 6.09585L1.33333 1.73752V10.4875C1.33333 10.637 1.38139 10.7597 1.4775 10.8559C1.57361 10.952 1.69639 11 1.84583 11H14.1542C14.3036 11 14.4264 10.952 14.5225 10.8559C14.6186 10.7597 14.6667 10.637 14.6667 10.4875V1.73752L8 6.09585ZM8 5.16669L14.41 1.00002H1.59L8 5.16669ZM1.33333 1.73752V1.00002V10.4875C1.33333 10.637 1.38139 10.7597 1.4775 10.8559C1.57361 10.952 1.69639 11 1.84583 11H1.33333V1.73752Z" fill="#020202"/>
</svg>
